<svg id="bold" enable-background="new 0 0 24 24" height="512" viewBox="0 0 24 24" width="512" xmlns="http://www.w3.org/2000/svg"><g><g><g><path d="m12.75.75v1.25h-1.5v-1.25c0-.41.34-.75.75-.75s.75.34.75.75z"/></g></g></g><g><g><g><path d="m15.25 3h-6.5c-.414 0-.75.336-.75.75v3.25h8v-3.25c0-.414-.336-.75-.75-.75z"/></g></g></g><g><g><g><path d="m5.75 8c-.41 0-.75.34-.75.75v3.69l6.25-2.26v-2.18z"/></g></g></g><g><g><g><path d="m18.25 8h-5.5v2.17l6.25 2.27v-3.69c0-.41-.34-.75-.75-.75z"/></g></g></g><g><g><g><path d="m20.47 14.03-8.22-2.97c-.16-.06-.34-.06-.5 0l-8.22 2.97c-.36.13-.57.51-.48.88l1.07 4.67c.02-.01.04-.01.06-.01.14-.03.25-.03.32-.03.85 0 1.62.39 2.05 1.06.38.57 1 .9 1.7.9s1.32-.33 1.71-.91c.42-.66 1.19-1.05 2.04-1.05s1.62.39 2.05 1.06c.38.57 1 .9 1.7.9s1.32-.33 1.71-.91c.42-.66 1.19-1.05 2.04-1.05.07 0 .18 0 .32.03.02 0 .04 0 .06.01l1.07-4.67c.09-.37-.12-.75-.48-.88z"/></g></g></g><g><g><g><path d="m24 23.25c0 .41-.34.75-.75.75h-22.5c-.41 0-.75-.34-.75-.75s.34-.75.75-.75c1.04 0 1.98-.51 2.54-1.36.23-.36.63-.56 1.06-.58.05-.02.1-.02.15-.02.48 0 .95.2 1.21.6.56.85 1.5 1.36 2.54 1.36s1.98-.51 2.54-1.36c.26-.4.73-.6 1.21-.6s.95.2 1.21.6c.56.85 1.5 1.36 2.54 1.36s1.98-.51 2.54-1.36c.26-.4.73-.6 1.21-.6.05 0 .1 0 .15.02.43.02.83.22 1.06.58.56.85 1.5 1.36 2.54 1.36.41 0 .75.34.75.75z"/></g></g></g></svg>